<svg width="210" height="20" viewBox="0 0 210 20" fill="none" xmlns="http://www.w3.org/2000/svg">
<path fill-rule="evenodd" clip-rule="evenodd" d="M0.5 9.99992C0.5 4.47712 4.97712 0 10.4999 0H48.3519C52.8337 0 56.6269 2.94839 57.8976 7.01135C58.103 7.66805 58.6826 8.1632 59.3707 8.1632C60.0587 8.1632 60.6384 7.66806 60.8438 7.01137C62.1145 2.94846 65.9077 0.00012207 70.3894 0.00012207H199.501C205.023 0.00012207 209.5 4.47724 209.5 10C209.5 15.5228 205.023 20 199.501 20H70.3894C65.9076 20 62.1144 17.0515 60.8437 12.9885C60.6383 12.3318 60.0587 11.8366 59.3706 11.8366C58.6826 11.8366 58.103 12.3318 57.8976 12.9884C56.6269 17.0514 52.8337 19.9998 48.3519 19.9998H10.4999C4.97712 19.9998 0.5 15.5227 0.5 9.99992ZM119.434 14.5346C118.734 14.5346 118.187 14.4361 117.794 14.2366C117.399 14.0383 117.124 13.7415 116.966 13.3437C116.809 12.9471 116.73 12.457 116.73 11.8707V8.55417C116.73 7.60218 116.942 6.9002 117.366 6.44945C117.789 5.9987 118.478 5.77209 119.435 5.77209H123.881C124.561 5.77209 125.08 5.80904 125.44 5.88417C125.799 5.95806 125.979 6.03565 125.979 6.11447L125.684 7.34848C125.517 7.31892 125.022 7.2869 124.199 7.25119C123.377 7.2167 122.183 7.19946 120.617 7.19946H119.864C119.076 7.19946 118.682 7.55169 118.682 8.25613V12.0493C118.682 12.3868 118.769 12.6466 118.941 12.8301C119.113 13.0136 119.421 13.1048 119.864 13.1048H120.47C122.105 13.1048 123.373 13.0875 124.274 13.053C125.176 13.0185 125.735 12.9816 125.951 12.941L126.557 13.9225C126.557 13.9718 126.476 14.0469 126.314 14.1454C126.152 14.2452 125.853 14.3338 125.42 14.4127C124.986 14.4915 124.362 14.5321 123.544 14.5321H119.437L119.434 14.5346ZM86.4889 14.5344V6.97887L86.3414 5.77441H92.8861C93.5167 5.77441 94.0109 5.85939 94.3711 6.02688C94.73 6.1956 94.9968 6.41605 95.1689 6.68823C95.341 6.96163 95.4516 7.25104 95.5008 7.55893C95.5499 7.86682 95.5745 8.1587 95.5745 8.43703V9.31513C95.5745 9.54296 95.5401 9.79913 95.4713 10.0812C95.4024 10.3632 95.2746 10.6366 95.0877 10.8989C94.9009 11.1612 94.6292 11.3804 94.2752 11.5529C93.9212 11.7265 93.4577 11.8127 92.8861 11.8127H91.379C90.7582 11.8127 90.1792 11.7979 89.6433 11.7684C89.1061 11.7388 88.7053 11.7142 88.4398 11.6945V14.5357H86.4902L86.4889 14.5344ZM88.4386 10.3841H92.4571C92.9008 10.3841 93.2057 10.2745 93.3729 10.0565C93.5401 9.83853 93.6237 9.57621 93.6237 9.26833V8.33112C93.6237 8.01338 93.5401 7.74613 93.3729 7.52814C93.2057 7.31016 92.9045 7.20055 92.4718 7.20055H88.4386V10.3841ZM72.394 14.5346C71.7241 14.5346 71.2324 14.5051 70.9165 14.4459C70.6018 14.3868 70.4432 14.3166 70.4432 14.2378L71.0345 12.9434C71.2607 12.9829 71.8249 13.0198 72.726 13.0555C73.627 13.09 74.8661 13.1072 76.4421 13.1072H76.7223C77.1452 13.1072 77.4464 13.0309 77.6234 12.8769C77.8004 12.723 77.8889 12.4631 77.8889 12.0961V11.7981C77.8889 11.4508 77.8176 11.2033 77.675 11.0542C77.5324 10.9052 77.2141 10.8313 76.7223 10.8313H73.2951C72.3006 10.8313 71.5766 10.6454 71.123 10.2734C70.6694 9.90151 70.4432 9.29436 70.4432 8.45074V8.21305C70.4432 7.77708 70.5243 7.3756 70.6866 7.0086C70.8488 6.64159 71.1267 6.34725 71.5213 6.12311C71.9146 5.9002 72.4567 5.78813 73.1464 5.78813H77.1649C77.8348 5.78813 78.3757 5.82261 78.79 5.89281C79.2043 5.96178 79.4108 6.0369 79.4108 6.11572L79.1157 7.36575C78.8601 7.33619 78.2786 7.30417 77.3726 7.26845C76.4666 7.23397 75.2497 7.21673 73.7229 7.21673L73.5606 7.20195C73.107 7.20195 72.8022 7.29432 72.6448 7.47659C72.4875 7.66009 72.4026 7.89039 72.394 8.16872V8.42119C72.394 8.74878 72.485 8.99386 72.6669 9.15765C72.8489 9.32145 73.1525 9.40273 73.5754 9.40273H76.8551C77.4857 9.40273 78.0229 9.46677 78.4655 9.59609C78.9092 9.7254 79.2485 9.96062 79.4845 10.303C79.7206 10.6454 79.8386 11.1491 79.8386 11.8129V12.0506C79.8386 12.7944 79.6493 13.3942 79.2694 13.8499C78.8896 14.3055 78.2331 14.5346 77.2976 14.5346H72.394ZM104.334 5.78821L100.006 14.5347H102.162L103.122 12.6455H108.412L109.284 14.5347H111.559L107.245 5.78821H104.334ZM107.866 11.1886H103.657L105.695 7.12814H105.843L107.866 11.1886ZM132.464 5.78821V14.5347H140.531C141.181 14.5347 141.639 14.5174 141.905 14.483C142.171 14.4472 142.303 14.4103 142.303 14.3709L141.712 13.1061H134.414V10.7415H139.939V9.26857H134.414V7.21558H141.653V5.78821H132.464ZM151.182 14.5344L151.167 7.20178H147.326V5.77441H156.988V7.20178H153.132V14.5344H151.182ZM162.897 5.78821V14.5347H164.847V5.78821H162.897ZM171.791 14.5348V6.97923L171.643 5.78955H173.889L177.228 11.7392L180.685 5.78955H182.679V14.536H180.729V8.98789H180.567L179.99 10.2823L178.129 13.6444H176.342L174.481 10.2823L173.889 8.98789H173.742V14.536H171.792L171.791 14.5348ZM189.476 5.78821V14.5347H197.542C198.192 14.5347 198.651 14.5174 198.916 14.483C199.182 14.4472 199.315 14.4103 199.315 14.3709L198.723 13.1061H191.425V10.7415H196.951V9.26857H191.425V7.21558H198.664V5.78821H189.476ZM13.5292 7.64981V9.76483V9.76597L10.7144 10.9047L13.5292 12.049V14.1663L8.03782 11.9934H8.02649V9.82387H8.03782L13.5292 7.64981ZM45.5215 14.0539V11.94L48.334 10.8024L45.5215 9.66488V7.54986L51.0049 9.72165H51.0185V11.8934H51.0049L45.5215 14.0539ZM43.1667 4.56067L39.9417 15.5763H41.8567L45.0818 4.56067H43.1667ZM22.3964 9.58896C22.4304 8.72728 22.1437 7.88717 21.5987 7.25028H21.5998C21.3301 6.94943 21.0026 6.71329 20.64 6.55776C20.2774 6.40223 19.8887 6.33184 19.4978 6.34887C19.0785 6.32957 18.6603 6.40223 18.2683 6.56117C17.8762 6.72011 17.5181 6.96306 17.2178 7.27412V6.5782H15.3027V14.2811H17.2178V10.8696C17.2178 9.09965 17.8172 8.21527 19.0162 8.21527C19.2167 8.20619 19.4173 8.24592 19.602 8.33107C19.7856 8.41621 19.9499 8.54564 20.0813 8.70798C20.3612 9.07922 20.504 9.54582 20.4814 10.0204V14.2811H22.3964V9.58896ZM24.8342 3.37451V14.3901H26.7493V3.37451H24.8342ZM35.9719 13.9859H37.5686L40.2553 6.26941H38.2088L36.7005 10.8991L35.1469 6.26941H33.6534L32.0998 10.8843L30.5915 6.26941H28.545L31.2295 13.9859H32.8251L34.4058 9.44819L35.9719 13.9859Z" fill="url(#paint0_linear_206_329)"/>
<defs>
<linearGradient id="paint0_linear_206_329" x1="3.96297" y1="-6.6526" x2="235.701" y2="-6.6526" gradientUnits="userSpaceOnUse">
<stop offset="0.251308" stop-color="#996DFF"/>
<stop offset="0.623787" stop-color="#FF876E"/>
<stop offset="1" stop-color="#FFD072"/>
</linearGradient>
</defs>
</svg>
